<svg xmlns="http://www.w3.org/2000/svg" viewBox="0 0 256.4 35.97"><g transform="translate(-349.49-367.76)"><text x="111.43" y="278.08" font-family="Continuum Light" word-spacing="0" line-height="125%" letter-spacing="0" font-size="40"><tspan x="111.43" y="278.08"/></text><g transform="translate(-34.85 1.263)"><path d="m422.65625 368.1875a.508367 .508367 0 0 0 -.34375 .5v6.313h-9.531c-2.063 0-3.742.548-4.969 1.688-1.234 1.146-1.844 2.805-1.844 4.875v8.938.063c-.025.234-.063.482-.063.75 0 1.27.37 2.458 1.094 3.5.73 1.051 1.737 1.772 2.938 2.094.669.183 1.597.25 2.875.25h4.688c2.264 0 4.03-.521 5.25-1.625 1.219-1.104 1.812-2.745 1.813-4.813v-22.03a.508367 .508367 0 0 0 -.5 -.5h-1.25a.508367 .508367 0 0 0 -.15625 0M384.8125 375a.508367 .508367 0 0 0 -.25 .8125l8.03 10.313-8.156 10.219a.508367 .508367 0 0 0 .40625 .8125h1.688a.508367 .508367 0 0 0 .40625 -.1875l7.094-9 7.06 9a.508367 .508367 0 0 0 .40625 .1875h1.656a.508367 .508367 0 0 0 .40625 -.8125l-8.06-10.25 7.906-10.281A.508367 .508367 0 0 0 403 375h-1.688a.508367 .508367 0 0 0 -.40625 .1875l-6.875 9.03-6.969-9.03A.508367 .508367 0 0 0 386.65625 375h-1.688a.508367 .508367 0 0 0 -.15625 0m44.75 0a.508367 .508367 0 0 0 -.34375 .5v1.281a.508367 .508367 0 0 0 .5 .5h11.594c1.426 0 2.405.329 3.03.938.626.608.969 1.556.969 2.938v.875h-10.125c-1.806 0-3.318.553-4.406 1.656-1.086 1.101-1.625 2.597-1.625 4.406v3.156c0 1.499.451 2.82 1.344 3.844.009.011.022.02.031.031 1.137 1.349 2.794 2.031 4.781 2.031h6.344c1.86 0 3.378-.555 4.406-1.688 1.019-1.122 1.5-2.658 1.5-4.531v-9.531c0-2.065-.557-3.715-1.75-4.813-1.193-1.098-2.945-1.594-5.156-1.594h-10.938a.508367 .508367 0 0 0 -.15625 0m-16.812 2.313h9.563v13.344c0 1.304-.375 2.226-1.063 2.906-.677.67-1.728 1.141-3.219 1.313-.023.003-.04-.002-.063 0h-.344a.508367 .508367 0 0 0 -.0625 0c-.157.023-.282.031-.375.031h-4.406c-1.798 0-2.981-.398-3.594-1-.614-.603-1-1.736-1-3.531v-8.719c0-1.71.615-2.902 1.875-3.75v.031c.573-.375 1.469-.625 2.688-.625m22.344 6.969h10.188v6.969c0 1.305-.318 2.179-.875 2.75-.557.571-1.414.906-2.688.906h-6.5c-.14 0-.336-.016-.594-.063-1.133-.199-1.927-.626-2.438-1.219-.511-.593-.781-1.382-.781-2.469v-3.094c0-1.131.284-1.968.781-2.563.492-.588 1.243-.98 2.313-1.156.017-.003.015.002.031 0 .295-.043.49-.063.563-.063" transform="translate(0-1.683)" fill="#eaa40d"/><path d="M540.25 366.53125A.461794 .461794 0 0 0 539.8125 367v28a.461794 .461794 0 0 0 .46875 .46875h1.25A.461794 .461794 0 0 0 542 395v-28a.461794 .461794 0 0 0 -.46875 -.46875h-1.25a.461794 .461794 0 0 0 -.0312 0m-71.5938.0312a.461794 .461794 0 0 0 -.4375 .46875v6.344h-9.594c-2.055 0-3.72.557-4.938 1.688-1.227 1.14-1.844 2.814-1.844 4.875v8.969.031c-.026.276-.031.514-.031.75 0 1.261.378 2.407 1.094 3.438.72 1.037 1.682 1.743 2.875 2.063.666.182 1.631.281 2.906.281h4.656c2.256 0 4.01-.508 5.219-1.594 1.208-1.086 1.812-2.722 1.813-4.781v-22.06a.461794 .461794 0 0 0 -.46875 -.46875h-1.219a.461794 .461794 0 0 0 -.0312 0m13.312 6.781c-.246 0-.544.003-.906.031-2.043.165-3.617.762-4.594 1.844-.975 1.081-1.406 2.687-1.406 4.75v9c-.035.149-.063.304-.063.563 0 1.9.744 3.464 2.156 4.531 1.268.952 2.911 1.406 4.875 1.406h10.938A.461794 .461794 0 0 0 493.4375 395v-1.25a.461794 .461794 0 0 0 -.46875 -.46875h-11.219c-1.721 0-2.815-.365-3.406-1-.483-.526-.875-1.678-1.031-3.5L477.25 388.19 493.16 381.25a.461794 .461794 0 0 0 .28125 -.4375v-.563c0-2.299-.441-4.056-1.406-5.188-.98-1.148-2.651-1.661-4.906-1.688l-5.156-.031m42.875 0c-.246 0-.544.003-.906.031-2.044.165-3.59.766-4.563 1.844-.972 1.077-1.438 2.682-1.438 4.75v9c-.007.056-.028.128-.031.188-.005.109 0 .226 0 .375 0 1.9.744 3.464 2.156 4.531 1.268.952 2.911 1.406 4.875 1.406h10.906A.461794 .461794 0 0 0 536.3125 395v-1.25a.461794 .461794 0 0 0 -.46875 -.46875h-11.188c-1.721 0-2.815-.365-3.406-1-.489-.531-.906-1.683-1.063-3.5l-.031-.594 15.875-6.938a.461794 .461794 0 0 0 .28125 -.4375v-.563c0-2.299-.441-4.056-1.406-5.188-.98-1.148-2.651-1.661-4.906-1.688l-5.156-.031m74.53 0c-.246 0-.544.003-.906.031-2.044.165-3.59.766-4.563 1.844-.972 1.077-1.438 2.682-1.438 4.75v9c-.007.056-.028.128-.031.188-.005.109 0 .226 0 .375 0 1.9.744 3.464 2.156 4.531 1.268.952 2.911 1.406 4.875 1.406h10.906A.461794 .461794 0 0 0 610.84375 395v-1.25a.461794 .461794 0 0 0 -.46875 -.46875h-11.188c-1.721 0-2.815-.365-3.406-1-.489-.531-.906-1.683-1.063-3.5l-.031-.594 15.875-6.938a.461794 .461794 0 0 0 .28125 -.4375v-.563c0-2.299-.441-4.056-1.406-5.188-.98-1.148-2.651-1.661-4.906-1.688l-5.156-.031m-104.81255.0311a.461794 .461794 0 0 0 -.375 .65625l9.531 20.406A.461794 .461794 0 0 0 503.75 394.5c.179.282.265.469.313.563a.461794 .461794 0 0 0 .0312 .0312c.228.344.609.594 1.031.594.318 0 .609-.186.813-.406.204-.22.341-.498.5-.844L516 374.03a.461794 .461794 0 0 0 -.40625 -.65625h-1.438a.461794 .461794 0 0 0 -.40625 .28125l-8.688 18.563-8.625-18.563a.461794 .461794 0 0 0 -.40625 -.28125h-1.438a.461794 .461794 0 0 0 -.0312 0m58.812 0c-1.893 0-3.402.433-4.5 1.313h-.031c-.847.682-1.49 1.498-1.813 2.438-.243.728-.344 1.717-.344 2.969v8.938.063c-.024.245-.031.493-.031.719 0 2.384 1.202 4.167 3.406 5.156.76.348 1.841.5 3.313.5h5.063c2.037 0 3.662-.532 4.75-1.625 1.088-1.093 1.594-2.7 1.594-4.75v-9c0-2.152-.51-3.846-1.594-5-1.084-1.154-2.708-1.719-4.75-1.719h-5.063m22.594 0c-2.099 0-3.754.509-4.875 1.563-1.121 1.054-1.656 2.619-1.656 4.594v22.469a.461794 .461794 0 0 0 .46875 .46875h1.219A.461794 .461794 0 0 0 571.59375 402v-6.531h10.03c2.326 0 4.136-.908 5.281-2.656.604-.935.906-2.211.906-3.813v-9.5c0-1.969-.582-3.55-1.781-4.594-1.199-1.044-2.96-1.531-5.188-1.531h-4.875m44.28 0c-.163.023-.283.031-.344.031a.461794 .461794 0 0 0 -.0625 0c-1.762.182-3.159.837-4.094 1.938-.935 1.101-1.375 2.614-1.375 4.5L614.34 395a.461794 .461794 0 0 0 .46875 .46875h1.281A.461794 .461794 0 0 0 616.5625 395v-15.16c0-1.372.295-2.357.844-3.03.549-.674 1.351-1.076 2.531-1.188A.461794 .461794 0 0 0 620 375.59375c.06-.012.234 0 .469 0h1.625a.461794 .461794 0 0 0 .46875 -.46875v-1.281a.461794 .461794 0 0 0 -.46875 -.46875h-1.781a.461794 .461794 0 0 0 -.0625 0m8.938 0c-1.698 0-3.149.407-4.281 1.219-1.258.907-1.906 2.277-1.906 3.938v1.313c0 1.784.546 3.208 1.656 4.156 1.111.949 2.728 1.406 4.781 1.406h4.938c1.209 0 1.929.264 2.313.75a.461794 .461794 0 0 0 .0312 .0312c.341.401.615 1.241.719 2.5l.063 1v.031c0 .077-.006.323-.031.75-.074 1.012-.387 1.68-.906 2.125-.519.445-1.288.688-2.406.688h-10.625A.461794 .461794 0 0 0 623.0625 393.75v1.25a.461794 .461794 0 0 0 .46875 .46875h10.563c2.32 0 4.095-.869 5.03-2.594.435-.808.594-1.869.594-3.188v-1.031c0-1.765-.417-3.163-1.313-4.125-.895-.962-2.237-1.437-3.906-1.438h-5.03c-1.499 0-2.564-.231-3.156-.625-.762-.493-1.125-1.309-1.125-2.656v-1.313c0-.969.352-1.692 1.188-2.313.473-.35 1.426-.594 2.844-.594h10.156a.461794 .461794 0 0 0 .46875 -.46875v-1.281A.461794 .461794 0 0 0 639.375 373.375h-10.188m-146.91 2.219h4.281c1.605 0 2.76.325 3.5.906.74.581 1.119 1.405 1.156 2.656 0 .026-.038.291-.063.5l-13.938 6.125v-6.188c0-1.613.443-2.623 1.313-3.219.726-.499 1.985-.781 3.75-.781m42.906 0h4.25c1.605 0 2.76.325 3.5.906.74.581 1.119 1.405 1.156 2.656 0 .077-.013.317-.031.531l-13.938 6.094v-6.188c0-1.613.443-2.623 1.313-3.219.726-.499 1.985-.781 3.75-.781m28.22 0h4.969c1.485 0 2.524.348 3.188 1 .664.652 1 1.651 1 3.094v9.875c0 1.776-.591 2.84-1.906 3.438-.418.188-1.19.281-2.281.281h-4.969c-.956 0-1.632-.004-1.906-.063-.911-.182-1.541-.584-1.969-1.188-.428-.603-.656-1.458-.656-2.594v-9.75c0-1.967.638-3.132 2.031-3.781.376-.178 1.252-.312 2.5-.313m22.719 0h4.781c1.64 0 2.792.333 3.531.969.739.636 1.125 1.592 1.125 2.969v9.563c0 1.487-.34 2.525-.969 3.188-.629.662-1.583 1-2.969 1h-10.03v-13.625c0-1.422.374-2.409 1.094-3.063.72-.653 1.841-1 3.438-1m23.594 0h4.25c1.605 0 2.76.325 3.5.906.74.581 1.119 1.405 1.156 2.656 0 .077-.013.317-.031.531l-13.938 6.094v-6.188c0-1.613.443-2.623 1.313-3.219.726-.499 1.985-.781 3.75-.781m-141.13.031h9.625v13.375c0 1.311-.357 2.247-1.063 2.938-.695.681-1.783 1.14-3.281 1.313-.023.003-.04-.002-.063 0h-.344a.461794 .461794 0 0 0 -.0625 0c-.16.023-.281.031-.375.031h-4.406c-1.81 0-3-.358-3.625-.969-.618-.607-.969-1.787-.969-3.594v-8.719c0-1.727.575-2.927 1.844-3.781.584-.382 1.495-.594 2.719-.594" transform="translate(.893)" fill="#3e3e3e"/></g></g></svg>